<svg width="128" height="128" viewBox="0 0 128 128" fill="none" xmlns="http://www.w3.org/2000/svg">
  <rect width="128" height="128" rx="32" fill="#0C1F36"/>
  <path d="M31 89L51.5 39H63.5L84 89H71L66.75 77.5H48L43.75 89H31ZM51.7 67.2H63.05L57.4 51.5L51.7 67.2Z" fill="#FFF9F0"/>
  <path d="M86 89V39H97.2C103.8 39 109 40.5667 112.8 43.7C116.6 46.8333 118.5 51.5333 118.5 57.8C118.5 62 117.533 65.6 115.6 68.6C113.667 71.5533 110.9 73.7667 107.3 75.24L120 89H105.55L95.35 77.8V89H86ZM95.35 68.1H97.95C100.95 68.1 103.233 67.2333 104.8 65.5C106.367 63.7667 107.15 61.4667 107.15 58.6C107.15 55.7333 106.333 53.5 104.7 51.9C103.067 50.2533 100.783 49.43 97.85 49.43H95.35V68.1Z" fill="#FFB067"/>
</svg>
